<svg width="106" height="38" viewBox="0 0 106 38" fill="none" xmlns="http://www.w3.org/2000/svg">
<g filter="url(#filter0_d_403_744)">
<path d="M4.44376 7.99999H10.3838V24.29H20.4038V29H4.44376V7.99999Z" fill="#8E40CB"/>
<path d="M33.022 29.42C30.802 29.42 28.802 28.95 27.022 28.01C25.262 27.07 23.872 25.77 22.852 24.11C21.852 22.45 21.352 20.58 21.352 18.5C21.352 16.42 21.852 14.55 22.852 12.89C23.872 11.23 25.262 9.92999 27.022 8.98999C28.802 8.04999 30.802 7.57999 33.022 7.57999C35.242 7.57999 37.232 8.04999 38.992 8.98999C40.772 9.92999 42.162 11.23 43.162 12.89C44.182 14.55 44.692 16.42 44.692 18.5C44.692 20.58 44.182 22.45 43.162 24.11C42.162 25.77 40.772 27.07 38.992 28.01C37.232 28.95 35.242 29.42 33.022 29.42ZM33.022 24.5C34.082 24.5 35.042 24.25 35.902 23.75C36.762 23.25 37.442 22.55 37.942 21.65C38.442 20.73 38.692 19.68 38.692 18.5C38.692 17.32 38.442 16.28 37.942 15.38C37.442 14.46 36.762 13.75 35.902 13.25C35.042 12.75 34.082 12.5 33.022 12.5C31.962 12.5 31.002 12.75 30.142 13.25C29.282 13.75 28.602 14.46 28.102 15.38C27.602 16.28 27.352 17.32 27.352 18.5C27.352 19.68 27.602 20.73 28.102 21.65C28.602 22.55 29.282 23.25 30.142 23.75C31.002 24.25 31.962 24.5 33.022 24.5Z" fill="#8E40CB"/>
<path d="M58.3931 29.42C56.1731 29.42 54.1731 28.95 52.3931 28.01C50.6331 27.07 49.2431 25.77 48.2231 24.11C47.2231 22.45 46.7231 20.58 46.7231 18.5C46.7231 16.42 47.2231 14.55 48.2231 12.89C49.2431 11.23 50.6331 9.92999 52.3931 8.98999C54.1731 8.04999 56.1731 7.57999 58.3931 7.57999C60.6131 7.57999 62.6031 8.04999 64.3631 8.98999C66.1431 9.92999 67.5331 11.23 68.5331 12.89C69.5531 14.55 70.0631 16.42 70.0631 18.5C70.0631 20.58 69.5531 22.45 68.5331 24.11C67.5331 25.77 66.1431 27.07 64.3631 28.01C62.6031 28.95 60.6131 29.42 58.3931 29.42ZM58.3931 24.5C59.4531 24.5 60.4131 24.25 61.2731 23.75C62.1331 23.25 62.8131 22.55 63.3131 21.65C63.8131 20.73 64.0631 19.68 64.0631 18.5C64.0631 17.32 63.8131 16.28 63.3131 15.38C62.8131 14.46 62.1331 13.75 61.2731 13.25C60.4131 12.75 59.4531 12.5 58.3931 12.5C57.3331 12.5 56.3731 12.75 55.5131 13.25C54.6531 13.75 53.9731 14.46 53.4731 15.38C52.9731 16.28 52.7231 17.32 52.7231 18.5C52.7231 19.68 52.9731 20.73 53.4731 21.65C53.9731 22.55 54.6531 23.25 55.5131 23.75C56.3731 24.25 57.3331 24.5 58.3931 24.5Z" fill="#8E40CB"/>
<path d="M81.2742 21.38L79.0542 23.75V29H73.1742V7.99999H79.0542V16.73L87.1842 7.99999H93.7242L85.1442 17.3L94.1742 29H87.2742L81.2742 21.38Z" fill="#8E40CB"/>
<path d="M94.7728 7.99999H101.553L100.413 21.35H95.8828L94.7728 7.99999ZM98.1628 29.27C97.1628 29.27 96.3428 28.97 95.7028 28.37C95.0628 27.75 94.7428 27 94.7428 26.12C94.7428 25.22 95.0628 24.48 95.7028 23.9C96.3428 23.32 97.1628 23.03 98.1628 23.03C99.1628 23.03 99.9728 23.32 100.593 23.9C101.233 24.48 101.553 25.22 101.553 26.12C101.553 27 101.233 27.75 100.593 28.37C99.9528 28.97 99.1428 29.27 98.1628 29.27Z" fill="#8E40CB"/>
<path d="M33.902 16C32.2452 16 30.902 17.3431 30.902 19V20C30.902 21.6568 32.2452 23 33.902 23C35.5589 23 36.902 21.6568 36.902 20V19C36.902 17.3431 35.5589 16 33.902 16Z" fill="#8E40CB"/>
<path d="M59.2765 16C57.6196 16 56.2765 17.3431 56.2765 19V20C56.2765 21.6568 57.6196 23 59.2765 23C60.9333 23 62.2765 21.6568 62.2765 20V19C62.2765 17.3431 60.9333 16 59.2765 16Z" fill="#8E40CB"/>
</g>
<defs>
<filter id="filter0_d_403_744" x="-1" y="0" width="108" height="45" filterUnits="userSpaceOnUse" color-interpolation-filters="sRGB">
<feFlood flood-opacity="0" result="BackgroundImageFix"/>
<feColorMatrix in="SourceAlpha" type="matrix" values="0 0 0 0 0 0 0 0 0 0 0 0 0 0 0 0 0 0 127 0" result="hardAlpha"/>
<feOffset dy="4"/>
<feGaussianBlur stdDeviation="2"/>
<feComposite in2="hardAlpha" operator="out"/>
<feColorMatrix type="matrix" values="0 0 0 0 0 0 0 0 0 0 0 0 0 0 0 0 0 0 0.25 0"/>
<feBlend mode="normal" in2="BackgroundImageFix" result="effect1_dropShadow_403_744"/>
<feBlend mode="normal" in="SourceGraphic" in2="effect1_dropShadow_403_744" result="shape"/>
</filter>
</defs>
</svg>
